<!-- Generated by IcoMoon.io -->
<svg version="1.1" xmlns="http://www.w3.org/2000/svg" width="1024" height="1024" viewBox="0 0 1024 1024">
<title></title>
<g id="icomoon-ignore">
</g>
<path d="M880.64 265.899c-50.176 3.755-56.32 5.803-141.653 48.811-49.493 24.917-72.704 36.864-180.907 93.525-18.773 9.899-43.349 22.528-54.613 28.331s-39.595 20.48-63.147 33.109c-23.552 12.288-74.752 38.912-114.347 59.392l-71.68 36.523-23.893-12.629c-110.251-59.051-158.72-81.92-172.715-81.92-15.019 0-40.277 10.581-49.835 21.163-8.875 9.899-6.827 24.917 5.12 39.936 6.144 7.509 10.923 15.019 10.923 17.067 0 1.707 1.024 3.755 2.731 4.437 1.365 0.341 8.533 8.533 16.043 18.091 7.509 9.216 15.701 18.432 17.749 19.797 2.389 1.365 4.437 4.437 4.437 6.144 0 2.048 2.048 5.461 4.096 7.851 9.216 9.216 60.757 75.776 61.099 78.507 0 1.707-7.168 7.168-16.043 12.288-19.115 10.24-24.917 21.845-17.749 36.523 9.899 20.821 9.216 21.163 189.781-39.253 91.477-30.379 167.253-55.296 168.96-55.296 5.12 0 2.048 9.557-7.509 22.869-5.461 7.509-10.923 16.725-11.947 20.821-1.365 4.096-3.755 7.509-5.461 7.509-1.365 0-3.413 2.731-4.779 5.803-1.024 3.413-5.12 10.581-8.875 16.384-11.264 16.725-14.336 26.624-11.947 38.229 1.707 9.216 3.755 11.264 13.653 13.312 9.557 1.707 17.408-1.024 44.373-14.677 29.355-14.677 36.864-20.48 70.997-55.637 21.163-21.504 63.488-64.853 94.549-96.597 31.061-31.403 58.709-61.099 61.44-65.877 3.413-5.461 23.893-18.091 58.027-35.84 219.136-112.981 245.76-129.024 268.971-162.475 9.216-12.971 9.899-37.205 1.365-47.104-14.677-17.408-24.235-20.139-65.536-20.821-21.504-0.341-53.931 0.341-71.68 1.707z"></path>
</svg>
