<!-- Generated by IcoMoon.io -->
<svg version="1.1" xmlns="http://www.w3.org/2000/svg" width="1024" height="1024" viewBox="0 0 1024 1024">
<title></title>
<g id="icomoon-ignore">
</g>
<path d="M250.88 8.875c-12.971 2.731-33.109 6.144-44.715 7.851s-23.893 4.437-27.307 6.144c-3.413 2.048-12.288 4.437-19.115 5.461s-17.749 4.096-23.893 6.827c-6.144 2.731-16.725 7.168-23.211 9.557-21.163 7.851-58.368 31.744-73.728 46.763-20.48 20.821-26.624 35.499-26.965 62.123 0 18.091 1.707 24.917 9.216 37.888 10.24 17.408 36.523 42.667 52.565 50.859 5.461 2.731 12.288 6.827 15.019 8.875 9.216 7.851 78.165 31.061 105.131 35.84 10.581 1.707 29.355 5.803 41.643 8.533 17.749 4.096 41.643 4.779 117.76 4.096 101.717-1.365 135.509-5.461 189.44-23.552 19.456-6.144 27.648-9.557 54.613-21.504 6.144-2.731 26.283-15.019 39.595-24.235 48.811-33.451 60.075-88.747 26.283-129.365-21.504-25.6-50.859-44.032-100.011-62.805-40.277-15.36-62.805-20.48-136.533-31.403-31.061-4.779-148.821-3.072-175.787 2.048zM19.456 265.216c-0.683 1.707-3.413 10.923-5.803 20.821-5.461 23.893-0.341 44.373 17.067 66.219 13.653 17.067 51.883 45.397 69.973 51.541 5.803 2.048 13.312 5.461 17.067 8.192 3.755 2.389 9.557 4.437 12.971 4.437s10.581 2.389 15.701 5.12c12.971 6.485 69.973 18.773 109.568 23.552 61.099 6.827 212.309 2.048 231.083-7.509 3.413-1.707 12.971-4.096 21.504-5.461 47.787-6.827 115.371-39.253 144.725-68.949 28.331-28.331 34.475-49.835 25.259-84.992-5.12-19.115-12.629-20.139-35.84-4.437-16.384 11.264-51.541 29.696-56.661 30.037-1.365 0-9.216 2.731-17.067 6.485-7.851 3.413-19.797 7.509-26.283 8.875s-18.773 4.779-27.307 7.509c-42.667 14.336-161.109 24.576-218.112 18.773-50.859-5.12-114.347-16.043-131.755-22.528-7.509-2.731-16.384-5.12-19.797-5.461-12.288 0-101.376-43.349-103.765-50.176-1.707-4.779-20.139-6.144-22.528-2.048zM24.576 411.648c-8.533 5.803-15.36 34.816-12.288 52.224 5.461 30.037 35.157 60.757 81.92 83.968 16.725 8.533 32.768 15.36 35.157 15.36s9.216 2.048 15.019 4.437c16.725 7.168 52.224 16.043 87.723 22.187 23.552 4.096 55.979 5.461 119.467 5.461 103.424 0.341 106.155-0.341 120.832-29.013 15.019-30.037 18.091-34.475 37.888-59.051 10.24-13.312 18.432-25.6 17.749-27.307-1.707-4.779-26.624-3.072-48.469 3.072-44.032 12.629-174.421 14.336-238.933 3.072-65.536-11.264-75.776-13.995-125.269-32.427-26.624-10.24-53.589-24.576-73.045-38.912-9.557-7.168-11.264-7.509-17.749-3.072zM718.507 421.547c-1.707 0.341-15.019 4.437-29.013 8.533-62.805 19.115-121.173 70.656-153.259 135.509-27.648 56.32-34.475 86.699-34.475 155.307 0 39.595 1.707 57.685 6.827 79.531 6.827 27.648 29.355 83.627 37.205 91.477 2.048 2.048 3.755 5.12 3.755 6.827 0 4.096 22.528 31.744 42.667 51.883 26.965 27.307 67.925 52.565 94.208 58.027 6.485 1.365 13.312 3.755 15.36 5.461 6.144 5.12 56.32 10.24 76.459 7.851 23.211-2.731 68.608-15.701 87.723-24.917 70.315-34.816 128-112.299 146.091-196.608 2.389-11.264 6.144-27.648 8.192-36.181 8.875-33.109-1.024-116.053-19.797-165.888-3.413-9.899-12.629-28.331-19.797-40.619s-14.677-25.6-16.725-29.355c-6.827-11.605-43.691-50.517-48.128-50.517-2.389 0-5.461-2.048-6.827-4.779-6.485-11.947-38.912-29.696-78.507-43.349-25.259-8.875-32.768-9.899-68.267-9.557-22.187 0-41.643 0.683-43.691 1.365zM810.325 498.688c12.971 4.096 29.355 11.264 35.84 15.701 6.827 4.437 15.36 9.899 18.773 12.288 9.557 6.144 30.72 24.235 32.085 27.307 0.683 1.365 3.755 4.779 6.485 7.851 3.072 2.731 8.533 10.24 12.629 16.043 62.464 92.843 55.296 219.477-16.725 303.787-48.469 56.661-120.832 79.872-187.392 60.075-13.312-4.096-27.989-10.24-32.427-13.653-4.437-3.755-10.24-6.485-12.971-6.485s-18.091-13.312-34.133-29.696c-23.893-24.235-31.744-35.157-42.667-58.368-16.384-35.499-25.6-68.267-28.331-102.059-2.048-22.528-1.024-32.427 6.827-64.171 8.533-34.475 13.653-47.445 30.72-80.213 7.509-14.336 61.099-68.267 67.925-68.267 2.389 0 6.485-2.048 8.533-4.779 3.755-4.437 50.176-20.48 68.608-23.893 14.677-2.731 41.984 1.024 66.219 8.533zM749.568 567.296c-2.731 4.437-5.803 12.971-7.168 19.115-1.707 7.851-5.803 13.653-12.971 17.749-19.456 11.605-24.917 18.773-31.403 38.912-5.461 17.067-5.803 22.187-2.048 35.84 7.509 28.331 18.091 38.912 62.805 61.781 20.139 10.24 31.061 26.283 26.624 37.888-7.168 19.115-28.672 26.624-51.883 18.432-25.6-9.216-34.133-6.144-38.912 12.629-3.072 11.947 10.581 26.624 24.917 26.624 11.605 0 16.725 5.12 19.797 19.115 3.072 16.384 9.557 22.528 22.528 21.163 10.581-1.024 11.605-2.048 14.677-18.091 3.072-13.995 5.461-18.091 13.653-22.187 5.803-2.731 15.701-11.264 22.528-19.115 14.677-17.067 19.115-40.619 13.312-68.267-4.437-20.821-19.115-36.523-49.493-52.565-33.109-17.749-39.253-23.211-39.253-34.133 0-11.605 15.019-27.307 25.6-27.307 3.755 0.341 12.971 2.389 20.48 5.12s16.043 5.12 19.115 5.12c7.851 0 17.408-15.701 16.043-26.624-0.683-7.168-4.096-10.24-16.043-14.677-17.067-6.144-27.648-17.067-27.648-28.331 0-16.043-16.725-21.163-25.259-8.192zM19.456 564.565c-6.485 6.485-10.24 38.229-6.144 51.883 1.707 5.803 6.827 16.725 11.605 23.893 7.509 12.288 13.312 17.749 42.667 40.96 5.12 4.096 12.971 8.533 17.749 9.899s10.24 4.096 12.629 5.803c12.629 9.899 83.627 31.403 127.659 38.229 61.44 9.899 69.973 10.581 127.659 10.581 39.936 0 61.44-1.365 68.608-4.437 10.24-4.437 10.581-4.779 14.677-40.96 2.389-20.139 5.12-41.984 5.803-48.811 2.389-15.701 0.341-16.384-46.421-12.629-77.141 6.144-207.531-7.851-248.149-26.624-5.803-2.389-12.971-4.779-16.043-4.779-7.851 0-70.656-30.379-81.579-39.595s-23.552-10.581-30.72-3.413zM19.456 711.68c-6.144 6.144-10.581 32.768-7.509 47.104 1.365 6.144 5.461 16.384 9.557 22.869 8.192 13.995 33.109 40.96 37.888 40.96 1.707 0 5.803 2.048 8.533 4.779 10.923 9.216 68.267 36.181 77.141 36.181 2.731 0 10.923 2.389 18.091 5.461 31.061 12.971 84.651 19.456 176.469 20.821 108.203 1.707 130.048 0 132.779-10.24 1.024-4.096-0.341-10.581-2.731-14.336-7.509-11.605-22.528-51.2-22.528-60.075-0.341-17.067-7.851-21.845-35.157-20.821-13.312 0.341-34.133 2.389-45.739 4.779-15.701 3.072-25.6 3.072-39.253 0-9.899-2.048-39.595-5.12-65.877-7.168-26.283-1.707-54.613-5.803-62.805-8.875-8.192-2.731-17.408-5.12-20.48-5.12-8.192 0-63.829-18.432-83.968-27.989-9.216-4.437-25.6-13.653-36.181-20.821-20.48-13.653-30.379-15.701-38.229-7.509z"></path>
</svg>
