<!-- Generated by IcoMoon.io -->
<svg version="1.1" xmlns="http://www.w3.org/2000/svg" width="1024" height="1024" viewBox="0 0 1024 1024">
<title></title>
<g id="icomoon-ignore">
</g>
<path d="M459.093 6.827c-71.339 15.36-136.875 65.536-169.984 129.365-23.211 44.715-27.989 64.853-27.989 118.101 0.341 59.392 2.048 65.877 45.056 154.624 17.749 37.205 40.619 83.968 50.517 104.789 9.899 20.48 28.331 58.027 40.619 83.285s22.528 46.421 22.528 47.104c0 0.683-53.589 1.024-118.784 1.024h-118.784l-18.432 38.229c-22.528 47.445-59.392 124.245-84.309 176.811-10.581 21.504-26.624 55.296-35.84 75.093s-22.187 46.421-28.672 59.392c-6.485 13.312-11.605 24.235-11.605 24.917s228.693 1.024 508.587 1.024c279.893 0 508.587-0.683 508.587-1.707s-7.168-16.725-15.701-34.816c-8.875-18.432-23.211-48.811-32.085-67.584s-26.283-54.955-38.229-80.213c-12.288-25.259-29.013-60.075-36.864-76.8-8.192-17.067-23.552-49.493-34.475-72.704l-19.797-41.643h-117.76c-65.195 0-118.101-1.365-118.101-3.072 0-2.731 23.211-51.2 104.789-218.795 42.325-86.357 43.691-90.112 50.859-130.731 6.144-34.816 4.779-55.979-5.461-100.352-19.115-80.896-80.896-147.797-163.84-177.152-22.187-7.851-32.085-9.216-73.387-10.24-26.283-0.683-53.931 0.341-61.44 2.048zM549.205 172.715c15.701 6.485 32.427 22.869 44.032 42.325 7.851 12.971 9.216 19.456 9.216 40.96 0 21.845-1.365 27.989-9.216 40.96-23.552 39.253-64.171 57.685-102.741 46.421-71.339-20.821-91.819-111.616-35.499-156.672 28.331-22.869 61.44-27.648 94.208-13.995zM347.477 682.325c3.072 1.707 4.096 8.533 3.413 19.456l-1.024 16.725-13.653 1.024c-51.2 3.072-77.824 12.971-128.683 48.128-19.456 13.312-40.277 25.259-46.763 26.283-6.827 1.365-10.923 1.024-9.899-0.683 1.365-1.707 12.971-25.941 26.283-53.931 13.653-28.331 26.283-53.248 28.331-55.637 2.731-3.413 19.797-4.437 70.656-4.437 36.864 0 68.949 1.365 71.339 3.072zM435.541 681.984c4.779 3.072 70.315 137.216 68.949 140.971-0.683 1.365-13.312-11.947-28.331-29.696-37.547-44.373-60.757-62.123-91.136-69.632l-16.384-4.096v-18.091c0-9.557 1.024-18.773 2.389-19.797 3.072-3.072 59.733-3.072 64.512 0.341zM657.067 701.44c3.755 11.264 9.899 24.576 12.971 29.355 8.533 12.971 29.355 26.283 55.979 36.523 20.48 7.509 30.037 8.533 81.92 10.24l58.709 1.365 18.432 38.229c23.893 48.811 24.235 50.859 17.749 63.147-12.288 24.235-61.44 39.936-134.485 43.349-108.885 5.12-192.512-21.504-244.736-77.483l-10.923-11.605 35.84-73.387c19.456-40.277 37.205-75.093 39.253-77.483 2.731-3.413 11.947-4.437 33.109-3.755l29.013 1.024 7.168 20.48zM817.835 681.984c3.413 2.048 38.912 73.045 38.912 77.483 0 1.024-16.384 1.707-36.523 1.707-76.459-0.341-123.221-16.725-139.947-49.152-6.827-13.312-11.264-28.331-8.533-30.72 2.731-3.072 141.653-2.389 146.091 0.683zM350.891 860.843l-1.024 123.904-144.384 1.024c-79.189 0.341-144.043-0.341-144.043-1.365 0-2.731 4.096-11.605 42.325-91.477 14.336-29.696 28.331-59.051 30.72-65.195 4.096-9.557 6.827-11.264 24.235-14.677 20.821-4.437 30.72-9.557 68.608-36.523 37.547-26.965 67.925-37.547 109.909-38.912l14.336-0.341-0.683 123.563zM409.259 754.005c18.091 11.947 38.229 32.427 72.021 73.387 44.032 53.589 92.501 85.675 155.648 103.424 32.085 8.875 37.547 9.216 107.179 9.216 65.536 0 76.459-0.683 102.059-7.851 34.133-9.216 44.373-13.995 61.44-29.355l12.971-11.605 20.821 44.032c11.605 24.576 21.163 46.080 21.163 47.787 0 2.389-101.717 3.413-296.96 3.413h-296.96v-248.491l11.947 2.731c6.485 1.365 19.456 7.509 28.672 13.312z"></path>
</svg>
