<!-- Generated by IcoMoon.io -->
<svg version="1.1" xmlns="http://www.w3.org/2000/svg" width="1024" height="1024" viewBox="0 0 1024 1024">
<title></title>
<g id="icomoon-ignore">
</g>
<path d="M48.811 11.264c-7.509 2.389-18.432 8.533-23.893 13.995l-9.557 9.557-1.024 479.232c-0.683 474.112-0.683 478.891 6.144 482.645 9.557 5.12 534.187 3.072 539.307-2.048 2.389-2.389 3.755-86.357 3.413-282.283v-278.528l8.533-5.803c7.168-4.437 13.312-5.461 31.744-3.755 19.456 2.048 23.893 3.413 30.379 11.605 11.605 14.336 12.971 29.013 6.485 70.656-3.072 20.821-7.168 47.445-8.875 59.392-1.707 11.605-6.144 31.403-10.24 43.691-3.755 12.288-6.827 26.965-6.827 32.085s-2.048 14.677-4.779 20.821c-8.533 20.821-17.067 84.992-17.067 132.779-0.341 80.555 17.067 131.755 59.051 173.739 27.648 26.965 52.565 38.571 96.597 44.715 38.571 5.461 83.627 1.024 106.837-10.581 7.509-3.413 15.36-6.485 17.067-6.485 6.485-0.341 34.133-21.163 47.787-36.181 14.336-15.701 26.283-37.205 39.595-71.339 7.851-19.456 8.192-24.235 7.851-98.987-0.341-71.68-1.024-80.213-7.509-98.987-4.096-10.923-7.509-23.211-7.509-26.624s-2.731-12.629-6.485-20.48c-3.413-7.851-7.509-19.797-8.875-26.283s-4.437-14.336-6.827-17.067c-3.755-4.779-11.947-25.6-18.773-49.493-1.707-5.803-4.779-21.845-6.827-35.84s-5.12-31.744-6.827-39.253c-1.707-7.851-1.707-15.019 0-17.067s17.408-5.803 34.816-7.851c51.541-6.827 57.344-9.557 68.608-31.403l9.899-18.773-1.365-71.68c-1.365-58.368-2.731-73.728-7.168-82.603-3.072-6.144-5.803-13.995-5.803-17.408 0-3.755-2.731-10.24-6.144-14.677s-9.899-14.677-14.336-22.869l-8.192-14.677 11.605-9.216c6.485-5.12 17.749-14.677 24.576-21.504 15.701-15.701 14.677-22.528-8.533-44.715-17.067-16.384-26.965-20.139-32.085-11.947-1.365 2.389-6.485 7.168-11.264 10.24-14.336 9.899-65.195 61.44-74.752 75.435-17.408 26.283-27.307 44.715-27.307 51.541-0.341 4.096-3.413 15.36-6.827 25.6-19.797 57.003-20.139 263.851-0.341 314.368 3.755 9.216 6.827 19.456 6.827 22.528 0 5.12 2.389 10.923 20.48 50.517 3.413 7.509 7.509 19.115 8.533 25.6 1.365 6.485 4.779 16.043 7.168 21.163 6.485 12.629 15.019 76.117 15.019 111.616 0 66.219-16.043 106.496-52.907 131.755-14.336 9.899-61.44 23.211-74.411 21.163-57.344-8.533-87.723-34.133-105.131-88.064-6.827-21.504-8.192-31.744-7.851-69.632 0-30.037 2.048-50.517 5.803-63.147 2.731-10.24 6.485-27.307 7.509-37.547 1.365-10.24 4.437-23.552 6.827-29.696 2.731-6.144 5.803-18.432 6.827-27.307 1.365-8.875 5.12-27.989 8.533-41.984s7.851-41.643 10.24-61.44c2.048-19.797 5.12-40.619 7.168-46.763 2.048-6.827 2.048-16.043 0-25.6-1.707-8.192-5.12-23.893-7.509-34.816-3.755-16.384-7.509-23.552-21.163-38.571-9.216-9.899-19.115-18.091-21.845-18.091-2.389 0-8.875-2.731-13.653-5.803-6.485-4.437-18.432-6.144-43.349-7.168-19.115-0.683-36.523-3.072-38.571-4.779-3.413-2.731-4.437-37.205-4.437-150.869 0-87.040-1.365-151.893-3.413-159.061-4.437-15.701-17.408-25.941-37.888-30.379-24.576-5.461-453.632-4.437-473.088 0.683zM488.107 108.885c2.048 4.437 3.413 49.835 3.413 124.587 0 112.981-0.341 118.101-6.485 121.515-10.24 5.12-390.144 4.779-395.605-0.683-5.12-5.12-5.803-229.717-0.683-243.029l3.413-8.875h195.925c190.805 0 196.608 0.341 200.021 6.485zM935.595 261.12c1.365 5.803 2.389 34.475 2.731 64.171l0.341 53.589-9.216 3.755c-6.144 2.389-13.995 2.731-21.504 0.683-11.605-2.731-11.947-3.072-11.605-19.797 0-9.557 2.731-31.744 6.144-49.493 3.072-17.749 6.485-37.205 7.509-43.349 3.413-21.845 21.504-28.672 25.6-9.557z"></path>
</svg>
