<!-- Generated by IcoMoon.io -->
<svg version="1.1" xmlns="http://www.w3.org/2000/svg" width="1024" height="1024" viewBox="0 0 1024 1024">
<title></title>
<g id="icomoon-ignore">
</g>
<path d="M419.499 5.12c-3.413 2.731-8.875 5.12-11.947 5.12-2.731 0-9.557 4.779-15.36 10.581l-9.899 10.24-1.024 99.669c-0.683 98.304-0.683 100.011 7.168 113.323 12.629 22.528 25.941 25.259 121.856 25.6 67.584 0 83.285-0.683 99.669-5.803 17.749-5.803 19.797-7.509 26.283-22.528 6.827-15.019 7.168-22.187 7.168-105.813 0-107.861-1.365-111.957-31.744-126.635-18.773-8.875-19.456-8.875-102.059-8.875-67.925 0-84.651 1.024-90.112 5.12zM482.304 93.867c2.389 4.779 4.096 12.288 4.096 16.725 0 9.557 5.803 12.288 24.917 12.288 25.259 0 29.355-2.389 30.379-18.091 1.024-15.019 9.899-23.893 16.725-17.067 4.096 4.096 5.461 86.357 1.707 92.843-3.755 5.461-14.677 4.437-17.067-1.707-1.024-3.072-2.048-9.557-2.048-15.019 0-10.923-6.485-14.336-27.307-15.36-18.773-1.024-27.307 3.413-27.307 14.336-0.341 18.432-16.384 28.672-23.552 15.019-4.437-8.192-4.096-66.56 0.341-81.579 4.096-13.312 13.653-14.677 19.115-2.389zM187.733 136.192c-27.648 12.629-25.6-23.552-25.6 436.565 0 407.552 0 409.941 7.168 421.888 9.899 17.067 24.235 19.115 136.192 19.115 90.795 0 95.573-0.341 98.987-6.485 2.048-4.096 3.413-37.547 3.413-84.651v-78.165l10.24-13.995c5.803-7.851 15.019-15.701 21.163-17.749 11.264-4.096 120.491-5.12 138.923-1.707 15.019 3.072 33.109 22.869 37.888 41.984 2.389 9.899 3.755 40.619 3.072 84.309-0.341 37.547 0.341 69.973 1.707 72.363 3.413 5.461 195.243 5.803 213.675 0.341 25.6-7.851 23.893 22.187 23.893-438.272 0-464.555 2.389-426.667-26.965-436.907-22.528-7.509-144.384-7.509-151.893 0.341-4.437 4.437-5.461 14.336-5.461 53.931 0 45.397-0.683 49.835-8.533 64.853-10.923 20.48-22.869 31.061-45.397 39.595-16.384 6.144-25.6 6.827-110.933 6.485-101.035 0-110.251-1.365-131.072-20.48-26.283-24.235-31.744-41.301-31.744-98.987 0-34.133-1.024-40.277-6.144-45.056-5.461-5.12-15.701-5.803-72.704-5.803s-68.267 1.024-79.872 6.485zM299.691 201.728c15.019 4.096 19.456 12.288 19.456 36.864 0 11.605-2.048 19.115-7.168 25.6-6.144 7.851-9.216 8.875-28.672 8.875-19.797 0-22.187-0.683-30.379-10.581-10.581-12.288-12.288-37.547-3.755-50.176 8.875-11.947 29.355-16.725 50.517-10.581zM757.077 201.728c8.875 2.389 13.995 6.144 16.043 11.947 5.12 12.971 4.096 37.888-1.707 49.152-5.12 9.899-6.144 10.24-28.331 10.24-21.163 0-24.235-1.024-32.427-9.557-17.408-18.091-9.899-55.296 12.288-61.781 15.019-4.437 19.115-4.437 34.133 0zM311.637 359.424c5.803 5.803 9.216 32.085 6.144 45.056-4.096 16.384-13.653 22.187-35.84 22.187-18.432 0-21.163-1.024-29.013-10.581-6.827-8.192-8.875-13.995-8.875-26.965 0-21.845 2.389-27.307 15.019-32.768 12.971-6.144 45.397-4.096 52.565 3.072zM464.896 360.448c11.264 15.701 7.851 55.637-5.803 62.805-3.413 2.048-14.677 3.413-24.576 3.413-15.701 0-19.797-1.365-27.648-9.557s-9.216-12.629-9.216-28.331c0-29.355 10.923-38.229 42.667-35.84 13.653 1.024 21.504 3.413 24.576 7.509zM608.256 355.328c5.12 1.707 10.581 5.461 11.947 7.509 4.096 6.485 3.072 43.008-1.024 51.2-5.803 10.923-9.557 12.629-31.403 12.629-17.067 0-20.821-1.365-27.989-8.875-7.168-7.851-8.533-12.629-8.533-30.379 0-21.163 3.755-28.331 17.067-33.451 8.875-3.072 29.696-2.389 39.936 1.365zM771.072 362.496c4.779 6.144 5.803 11.947 4.779 29.696-1.707 27.989-8.533 34.475-35.84 34.475-16.043 0-20.139-1.365-28.672-9.899-7.851-8.192-9.899-12.971-9.899-24.917 0-29.696 13.653-41.643 44.373-38.912 13.995 1.365 20.48 3.755 25.259 9.557zM299.008 505.515c9.557 3.072 13.995 6.485 16.725 14.336 5.12 14.677 4.096 35.157-1.707 46.763-5.12 9.899-6.144 10.24-30.72 10.24-24.235 0-25.259-0.341-32.427-10.581-6.144-8.533-7.509-13.653-6.144-29.013 1.707-21.163 6.827-27.989 23.552-32.085 16.384-3.755 16.384-3.755 30.72 0.341zM461.483 510.635c12.971 8.192 14.336 46.080 1.707 60.075-4.096 4.779-10.581 6.144-28.331 6.144-20.821 0-23.893-1.024-30.037-8.875-9.899-12.629-10.24-45.397-0.341-54.272 12.971-11.947 40.619-13.312 57.003-3.072zM602.795 505.515c16.725 5.461 20.139 11.947 20.139 35.499 0 30.72-4.779 35.84-33.109 35.84-31.403 0-38.571-6.485-38.571-35.84 0-26.965 6.485-33.451 37.888-38.912 1.024-0.341 7.168 1.365 13.653 3.413zM756.736 505.856c8.875 2.731 14.677 6.827 16.725 12.288 5.12 12.971 3.755 40.96-2.389 50.176-5.12 7.851-7.851 8.533-30.037 8.533-23.211 0-24.917-0.683-32.085-10.24-14.336-19.115-6.827-55.637 12.288-60.075 5.12-1.024 10.923-2.389 12.629-3.072 6.144-2.048 9.216-1.707 22.869 2.389zM301.739 659.115c6.485 2.389 12.288 7.509 14.336 12.288 8.192 21.504-0.683 56.32-15.019 60.416-9.557 2.389-25.941 2.389-35.499 0-19.456-5.12-28.672-46.080-14.677-63.829 9.557-12.288 30.72-15.701 50.859-8.875zM454.997 659.115c16.384 5.461 22.528 32.768 12.971 55.979-6.485 15.019-16.384 19.797-37.205 17.749-23.211-2.048-33.109-13.653-33.109-38.912 0-22.869 2.389-27.989 15.019-33.792 12.971-5.461 28.331-6.144 42.325-1.024zM617.131 665.941c7.168 9.216 7.851 40.277 0.683 53.931-8.533 16.725-38.912 19.456-55.979 5.12-9.899-8.192-10.581-10.581-10.581-30.037 0-11.605 2.048-23.893 4.437-26.965 9.899-13.995 50.176-15.36 61.44-2.048zM759.125 659.115c5.803 2.048 12.288 6.485 13.995 9.899 5.461 10.24 4.096 40.619-2.389 51.2-6.144 10.581-12.971 13.653-33.109 13.653-18.773 0-36.181-17.749-36.181-36.864 0-20.139 5.461-31.061 17.749-36.523 13.653-5.803 25.6-6.485 39.936-1.365zM312.661 817.835c2.389 3.072 4.779 13.995 5.461 24.576 1.024 15.019 0 21.845-5.461 30.379-12.288 19.456-44.032 19.456-60.416 0-7.851-9.557-8.875-12.971-7.509-30.72 2.048-26.283 6.485-29.696 38.912-29.696 18.091 0 25.6 1.365 29.013 5.461zM771.072 819.883c3.413 4.779 5.461 15.019 5.461 27.307 0 15.36-1.707 21.163-8.192 28.672-6.827 8.192-10.581 9.557-27.648 9.557-18.091 0.341-20.139-0.341-29.355-11.605-12.629-14.677-13.653-38.571-2.731-52.565 6.485-8.192 8.875-8.875 32.085-8.875 22.187 0 25.941 1.024 30.379 7.509z"></path>
</svg>
