<!-- Generated by IcoMoon.io -->
<svg version="1.1" xmlns="http://www.w3.org/2000/svg" width="1312" height="1024" viewBox="0 0 1312 1024">
<title></title>
<g id="icomoon-ignore">
</g>
<path d="M295.648 1021.664c0.288 0.192 0.672 0.096 0.96 0.288 2.336 1.184 4.768 2.048 7.392 2.048 1.408 0 2.816-0.192 4.224-0.576l347.776-94.912 347.776 94.912c1.408 0.384 2.816 0.576 4.224 0.576 2.624 0 5.056-0.864 7.36-2.080 0.32-0.16 0.672-0.096 0.96-0.288l288-176c6.112-3.744 8.992-11.136 7.040-18.016l-159.488-560c-1.312-4.704-4.736-8.544-9.28-10.432-4.544-1.824-9.632-1.536-13.952 0.832l-158.784 89.088c-7.68 4.32-10.432 14.080-6.112 21.792 4.32 7.744 14.048 10.464 21.824 6.112l141.088-79.2 150.624 528.832-256.48 156.768-60.928-487.392c-1.088-8.8-9.376-14.912-17.888-13.888-8.736 1.088-14.976 9.088-13.888 17.856l61.024 488.288-317.12-86.56v-87.36c0-8.832-7.168-16-16-16s-16 7.168-16 16v87.36l-317.152 86.56 61.024-488.288c1.088-8.768-5.12-16.768-13.888-17.856-8.704-1.024-16.768 5.088-17.888 13.888l-60.896 487.392-256.48-156.736 150.624-528.8 141.088 79.2c7.744 4.288 17.472 1.568 21.824-6.112 4.32-7.712 1.568-17.44-6.112-21.792l-158.816-89.12c-4.256-2.4-9.344-2.72-13.92-0.832-4.544 1.888-7.968 5.696-9.28 10.432l-159.488 560c-1.984 6.912 0.896 14.272 7.040 18.016l287.968 176zM645.152 747.776c3.072 2.816 6.944 4.224 10.848 4.224 3.84 0 7.68-1.376 10.752-4.128 10.656-9.696 261.248-239.648 261.248-475.872 0-152.544-119.456-272-272-272s-272 119.456-272 272c0 232.128 250.496 465.92 261.152 475.776zM656 32c136.8 0 240 103.168 240 240 0 195.104-191.776 394.784-239.904 441.824-48.032-47.584-240.096-249.888-240.096-441.824 0-136.832 103.2-240 240-240zM800 272c0-79.392-64.608-144-144-144s-144 64.608-144 144 64.608 144 144 144 144-64.608 144-144zM656 384c-61.76 0-112-50.24-112-112s50.24-112 112-112 112 50.24 112 112-50.24 112-112 112z"></path>
</svg>
