<!-- Generated by IcoMoon.io -->
<svg version="1.1" xmlns="http://www.w3.org/2000/svg" width="960" height="960" viewBox="0 0 960 960">
<title></title>
<g id="icomoon-ignore">
</g>
<path d="M443.778 5.555c-44.631 14.554-70.504 51.745-70.504 100.582 0 34.605 12.937 63.388 37.516 84.734 9.702 8.085 10.996 10.672 7.439 13.583-22.639 18.434-28.784 24.903-28.784 29.754 0 3.233 5.498 11.643 12.613 19.082 6.791 7.115 15.201 17.787 18.757 23.933 6.144 10.349 17.465 42.368 21.992 61.448 3.233 14.876-10.349 62.742-22.962 82.147-12.613 19.728-13.906 28.46-4.204 33.311 5.174 2.911 7.762 2.588 11.966-0.97 13.906-12.29 55.627-15.524 88.939-6.791 18.434 4.852 20.052 4.852 23.933-0.647 3.558-4.852 3.233-7.439-2.263-15.524-27.814-44.631-32.665-92.496-13.583-137.126 4.528-10.996 9.702-20.052 10.996-20.052 1.617 0 2.587-1.941 2.587-4.204 0-2.588 2.911-7.115 6.791-10.673 15.847-14.23 15.201-17.141-7.115-37.193l-20.698-18.757 16.817-15.524c9.38-8.409 20.698-22.639 25.226-31.371 7.115-13.906 8.085-20.052 8.085-47.542 0-35.252-1.617-41.397-18.112-65.976-12.613-19.404-29.107-30.4-56.921-38.486-22.315-6.469-21.992-6.469-48.512 2.263zM289.187 246.173c-53.363 14.554-83.117 67.269-71.474 127.101 5.498 26.843 23.932 58.214 34.605 58.214 1.941 0 4.852 2.587 6.144 5.498 1.294 4.204-1.617 9.38-10.996 18.112-7.439 6.791-13.26 13.583-13.26 15.201s4.204 7.762 9.055 13.583c5.174 5.822 11.966 15.847 15.524 21.992 9.38 15.847 20.698 54.981 20.698 70.18-0.323 21.023-11.966 58.214-24.256 76.972-7.439 10.996-10.996 19.082-9.38 21.668 1.617 2.263 10.996 15.524 21.668 29.43l18.757 24.903h25.873c23.933 0 26.519-0.647 33.636-8.409 4.528-4.852 8.085-9.702 8.085-10.996s5.174-8.085 11.319-14.876c17.465-19.082 19.404-25.55 10.673-39.78-20.375-32.665-27.167-61.772-21.992-97.347 1.941-13.26 4.528-25.226 6.144-27.167s4.528-8.732 6.469-14.876c1.941-6.469 8.085-16.494 13.583-22.315 11.966-13.26 11.319-22.315-2.587-31.047-13.26-8.085-17.465-20.375-8.732-26.197 21.022-14.23 34.605-37.192 40.427-66.946 10.996-57.567-22.639-112.548-74.708-121.927-8.085-1.617-17.465-3.233-21.022-4.204s-14.554 0.647-24.256 3.233zM620.037 245.85c-22.315 4.852-35.252 12.613-52.716 31.371-17.465 19.404-23.609 37.839-23.609 71.798 0 25.226 1.294 31.695 9.055 47.865 5.498 11.319 14.876 23.609 23.933 31.371l14.876 12.613-13.906 11.966c-7.439 6.791-13.583 14.554-13.583 17.787 0 2.911 5.498 11.643 11.966 18.758 6.469 7.439 16.171 22.962 21.345 34.928 9.055 20.698 9.38 22.962 8.085 57.244-1.617 37.192-5.498 50.129-21.022 72.121-10.673 14.554-9.38 21.668 6.791 41.721 8.085 9.702 15.201 20.375 16.494 23.609 2.263 7.762 10.673 10.026 40.427 10.026 26.843 0 34.282-3.881 43.013-21.345 2.911-5.174 9.38-13.906 14.554-19.404 13.906-13.583 15.201-20.698 5.498-34.928-4.528-6.469-8.085-12.613-8.085-13.583s-3.233-8.409-7.115-16.817c-10.349-22.639-10.349-65.976 0.323-94.436 4.528-11.643 12.29-26.519 17.787-33.311 9.055-11.319 9.38-12.937 5.174-20.052-2.587-4.204-10.026-10.996-16.171-15.201s-11.643-10.026-12.29-12.937c-0.647-3.233 6.469-12.613 16.817-22.639 22.962-22.315 31.047-42.043 31.047-76.326-0.323-30.077-8.409-51.745-27.489-72.768-16.171-17.465-31.695-26.843-49.159-29.43-7.439-0.97-15.201-2.587-17.787-3.233-2.263-0.647-13.26 0.647-24.256 3.233zM125.864 474.826c-40.427 11.643-65.329 40.75-73.091 85.703-3.233 17.141-2.911 23.609 1.941 40.427 9.055 31.371 24.256 56.273 37.192 60.802 6.791 2.263 0.97 18.434-9.055 24.256-20.698 11.966-54.010 64.683-61.772 97.994-1.617 6.144-5.174 20.052-8.085 30.725-7.439 26.197-11.319 131.629-5.174 139.067 3.558 4.204 21.992 4.852 142.625 4.852 138.097 0 138.421 0 142.301-6.791 2.587-5.174 2.587-20.052 0-58.861-2.263-28.46-4.528-52.716-5.174-54.333-0.97-1.294-3.881-13.583-6.469-27.814-10.996-57.567-41.073-108.99-75.031-126.778-10.026-5.174-9.38-8.085 5.822-23.933 19.404-19.728 27.489-33.958 33.636-58.537 4.852-18.758 4.852-25.226 1.617-42.043-6.791-35.575-23.933-61.448-50.129-75.679-24.903-13.26-46.895-16.171-71.151-9.055zM457.361 473.856c-8.085 1.617-18.434 5.822-23.286 9.38s-10.026 6.469-11.319 6.469c-5.174 0-24.579 25.226-32.017 42.043-19.404 42.69-3.558 110.607 29.754 128.719 9.702 5.174 9.702 7.439 0 17.141-4.528 4.204-14.554 14.23-22.639 22.315-9.055 8.732-20.698 25.873-28.784 42.043-24.903 48.835-31.695 80.529-33.958 154.914-0.97 45.278-0.647 56.597 2.911 58.861 6.469 4.204 273.607 3.558 281.368-0.323 7.115-3.881 8.085-25.226 2.911-71.151-7.115-64.358-14.23-96.053-26.197-121.28-3.233-7.115-6.144-13.906-6.144-15.201s-5.174-10.996-11.643-21.023c-12.29-19.404-25.873-33.311-40.75-41.721-5.174-2.587-9.055-6.144-9.055-8.085s6.791-10.026 14.876-18.434c8.085-8.409 19.082-23.609 24.256-34.282 8.085-16.494 9.38-22.315 9.38-46.895-0.323-21.668-1.941-31.695-7.762-45.278-13.583-31.371-39.132-52.716-68.24-56.921-8.732-0.97-19.082-2.587-22.639-3.233s-12.937 0.323-21.022 1.941zM794.357 473.856c-7.439 1.294-18.112 5.498-22.962 9.38-5.174 3.558-10.673 6.469-11.966 6.469-5.498 0-24.903 24.903-32.988 42.043-10.026 22.315-11.319 65.006-2.263 85.703 8.085 19.082 23.286 39.78 30.725 42.043 8.409 2.587 8.409 11.643-0.323 19.728-46.895 43.984-64.683 78.266-79.237 153.297-7.762 40.102-8.732 118.369-1.294 122.897 6.791 4.528 273.607 4.204 281.692 0 5.174-2.911 6.144-6.791 5.822-26.843-0.323-48.512-18.434-152.327-28.784-165.587-1.294-1.941-3.558-6.791-4.852-11.319-3.233-10.673-22.315-39.78-34.282-52.070-5.174-5.498-13.906-11.319-19.082-13.26-14.23-4.852-12.29-13.26 8.085-32.341 9.702-9.055 17.787-18.112 17.787-20.052 0.323-1.941 2.911-9.38 6.469-16.494 9.38-19.404 8.732-62.095-1.294-85.057-12.937-30.077-38.81-51.745-69.21-58.538-19.082-3.881-22.315-3.881-42.043 0z"></path>
</svg>
