<!-- Generated by IcoMoon.io -->
<svg version="1.1" xmlns="http://www.w3.org/2000/svg" width="1024" height="1024" viewBox="0 0 1024 1024">
<title></title>
<g id="icomoon-ignore">
</g>
<path d="M693.476 736h10.544c70.681 0 127.98-57.451 127.98-128h-320v-480h-32v480h-320c0 28.033 9.010 53.962 24.292 75.047 117.145-56.689 242.744-63.211 367.553 6.994 48.473 27.266 95.784 41.987 141.632 45.959v0 0zM832 576h-288v-288l288 288zM256 304c-96 160-96 272-96 272h288c0 0-32-48-32-192s32-256 32-256c0 0-96 16-192 176v0zM96 800.009c13.836-10.221 28.847-20.282 44.944-29.888 129.022-76.997 270.126-94.877 410.234-16.066 128.678 72.381 249.158 56.356 355.848-14.473 19.937-13.236 37.673-27.41 52.974-41.57v42.314c-10.914 8.854-22.684 17.557-35.275 25.916-115.906 76.948-248.908 94.638-389.235 15.704-128.701-72.394-258.077-56.001-378.147 15.654-22.804 13.609-43.3 28.192-61.139 42.753-0.068 0.055-0.136 0.111-0.203 0.166v-40.509zM191.334 839.409c114.937-53.286 237.769-58.021 359.844 10.646 111.406 62.666 216.668 59.066 312.156 11.004v35.491c-100.57 45.867-211.698 46.727-327.844-18.605-116.641-65.61-233.836-58.293-344.156-3.007v-35.53z"></path>
</svg>
