<!-- Generated by IcoMoon.io -->
<svg version="1.1" xmlns="http://www.w3.org/2000/svg" width="1024" height="1024" viewBox="0 0 1024 1024">
<title></title>
<g id="icomoon-ignore">
</g>
<path d="M9.216 12.971c-12.288 12.629-12.971 35.157-1.365 47.104 7.509 7.851 7.851 8.192 83.285 8.192 41.643 0 79.531 1.365 84.309 3.413 6.144 2.389 9.216 6.485 10.581 16.043 1.365 7.168 5.12 24.576 8.533 38.571 6.485 27.648 15.701 67.584 27.307 121.173 4.096 18.773 9.899 41.984 12.288 51.2 2.731 9.557 6.485 24.917 7.851 34.133 6.827 37.888 17.408 87.381 25.6 119.467 16.384 65.877 25.941 106.837 25.941 112.64 0 3.072 3.072 16.725 6.485 30.037 3.755 13.653 9.899 39.936 13.995 58.709 12.629 57.003 21.163 87.381 27.648 94.891 5.12 6.827 9.557 7.509 37.888 7.851 43.349 0.683 47.104 1.024 47.104 4.096 0 1.707-6.144 4.779-13.653 7.168-7.509 2.048-13.653 5.12-13.653 6.485s-4.779 5.461-10.581 8.875c-15.019 8.875-39.253 43.349-45.397 64.853-11.947 40.619-4.437 89.429 18.773 120.491 44.715 59.733 128.683 64.853 178.859 10.581 36.181-39.253 44.715-99.328 21.163-149.504-7.509-16.043-35.157-47.787-41.984-47.787-3.072 0-11.605-13.995-11.605-19.456 0-3.072 253.952 3.072 260.437 6.485 3.072 1.707 5.803 4.437 5.803 6.485 0 1.707-2.731 4.437-5.803 5.461-12.288 4.779-32.427 21.163-40.96 34.133-18.432 26.965-21.504 37.547-21.504 78.848 0 34.816 1.024 40.619 9.216 58.027 12.288 25.941 35.157 49.835 58.709 61.099 15.701 7.509 24.235 9.216 46.421 9.216 23.211 0.341 30.379-1.024 47.445-9.216 46.763-22.187 71.68-63.829 72.021-120.149 0-32.085-4.779-48.469-20.48-71.68-6.827-10.24-31.061-35.84-33.792-35.84-1.024 0-5.803-1.707-10.581-3.413-7.851-3.072-8.533-4.437-5.12-8.533 3.072-3.755 11.264-5.12 27.989-5.12 21.845 0 24.576-1.024 33.792-9.899 14.336-14.336 13.995-33.792-0.683-47.445l-10.581-9.899-192.853-2.389c-105.813-1.365-197.632-4.096-203.435-5.803-6.144-1.707-37.888-3.072-70.997-3.072-46.421 0-61.099-1.024-64.171-4.437-2.048-2.731-5.12-12.971-7.168-22.528-1.707-9.899-4.096-19.115-5.12-20.821-4.096-6.485-10.581-51.2-8.192-55.296 2.048-3.413 20.139-4.437 80.555-3.755 129.365 1.024 237.909 4.779 241.664 8.192 4.437 4.437 33.792 3.755 38.229-0.683 2.731-2.731 31.403-2.731 105.131-0.341 93.525 3.413 102.4 3.072 109.568-2.048 4.437-3.072 8.875-8.875 9.557-12.629 5.12-24.576 12.629-66.219 17.067-93.867 3.072-17.749 6.827-40.96 8.533-51.2s5.12-31.061 7.168-46.080c8.192-58.368 12.971-86.357 16.384-97.621 2.048-6.485 4.437-22.528 5.461-36.181s4.437-33.451 7.168-44.373c7.168-27.307 6.485-37.205-3.755-50.859-7.851-9.899-10.923-11.605-23.211-11.605-21.504 0-27.648 8.533-36.181 49.493-3.755 18.432-8.875 35.84-11.264 38.571-3.413 4.437-25.259 4.779-167.936 2.731-90.112-1.024-235.179-3.072-322.56-4.096s-161.109-3.413-164.181-5.12c-3.072-1.365-6.485-9.216-7.851-17.408-2.389-17.408-13.995-69.291-20.821-93.184-2.731-9.557-6.485-26.283-8.192-37.547-6.144-34.133-13.653-57.003-21.504-65.536l-7.168-7.851h-202.411l-9.216 9.557zM484.011 301.397c2.731 2.048 4.096 12.288 4.096 31.403 0 24.917-1.024 29.355-6.485 32.427-4.096 2.048-37.205 3.413-83.627 3.413h-77.141l-6.485-12.971c-7.168-13.995-14.336-47.104-11.605-53.931 1.024-2.389 4.096-4.779 6.827-5.461 11.264-2.048 170.325 2.389 174.421 5.12zM670.72 300.373c8.875 3.413 8.875 3.413 7.851 36.523l-1.024 33.451-57.344 1.024c-35.499 0.341-59.733-0.683-63.829-2.731-6.144-3.072-6.827-7.168-6.827-34.133 0-25.259 1.024-31.061 6.144-33.792 7.509-4.437 103.424-4.779 115.029-0.341zM928.427 305.493c3.413 4.096 3.413 10.923 0.341 31.403-2.048 14.336-5.461 27.989-7.509 30.72-6.144 7.168-171.349 6.485-177.152-0.683-4.437-5.461-3.413-54.613 1.365-62.464 1.707-3.072 26.283-4.096 90.453-4.096 74.411 0 89.088 0.683 92.501 5.12zM481.963 440.661c5.12 2.731 6.144 7.851 6.144 34.816 0 20.139-1.365 33.109-4.096 35.84-5.12 5.12-122.88 5.803-132.437 0.683-4.096-2.389-6.827-9.216-8.533-21.163-1.365-9.899-4.779-23.893-7.168-31.061-3.413-9.899-3.755-15.019-1.024-20.139 3.755-6.827 5.461-7.168 72.363-4.779 37.547 1.365 71.339 4.096 74.752 5.803zM673.792 438.955c4.437 1.707 5.461 8.192 5.461 35.499 0 18.432-1.024 35.84-2.048 38.912-1.707 4.779-10.24 5.461-59.392 5.461-70.315 0-68.267 1.365-68.267-39.936 0-42.667-1.365-41.984 65.195-41.984 29.355 0 55.979 1.024 59.051 2.048zM907.264 444.416c2.389 3.072 1.707 14.677-1.707 36.864-6.827 46.080-6.485 45.739-69.291 43.008-80.213-3.413-88.747-4.779-92.501-14.677-3.413-9.216-4.096-55.296-1.024-63.829 1.707-4.779 12.288-5.461 81.579-5.461 59.392 0 80.213 1.024 82.944 4.096zM481.621 837.973c32.768 20.821 39.253 61.44 14.336 89.429-10.581 11.605-27.989 21.504-37.547 21.504-11.264 0-31.744-8.875-39.595-17.067-9.216-10.24-19.456-32.427-19.456-42.667 0-4.437 2.731-13.653 6.144-21.163 15.701-35.499 47.445-47.787 76.117-30.037zM854.357 847.531c16.725 12.629 23.893 30.037 22.187 51.883-1.707 19.456-8.192 30.037-28.672 46.421-13.995 10.923-28.672 12.629-42.325 4.779-4.779-2.731-11.264-5.803-14.336-7.168-3.413-1.024-9.899-8.875-14.677-16.725-18.091-31.403-7.168-71.339 23.893-85.675 15.36-7.168 39.936-4.096 53.931 6.485z"></path>
</svg>
